<svg width="74" height="78" viewBox="0 0 74 78" fill="none" xmlns="http://www.w3.org/2000/svg">
<g id="testimonial-icon 1" clip-path="url(#clip0_91_103)">
<g id="Symbols">
<g id="Testimonial-Blade">
<g id="Group-31">
<g id="Testimonial-icon">
<g id="Mask group">
<mask id="mask0_91_103" style="mask-type:luminance" maskUnits="userSpaceOnUse" x="0" y="0" width="74" height="78">
<g id="Group">
<path id="Vector" d="M0 0.027832H73.9664V78.0001H0V0.027832Z" fill="white"/>
</g>
</mask>
<g mask="url(#mask0_91_103)">
<path id="Fill-1" fill-rule="evenodd" clip-rule="evenodd" d="M72.0888 25.1134C70.5797 20.6194 68.2347 16.5063 65.1192 12.8881C62.0028 9.2691 58.2714 6.32714 54.0289 4.14282C49.6348 1.88106 44.8845 0.536613 39.9084 0.145416C34.9324 -0.245782 30.0273 0.340216 25.3285 1.88744C20.7918 3.38118 16.6387 5.70361 12.9847 8.79008C9.33144 11.8766 6.36096 15.5722 4.15547 19.774C1.87179 24.125 0.513506 28.8298 0.118517 33.7581C-0.275666 38.6824 0.314399 43.5372 1.8742 48.1877C3.27682 52.371 5.40492 56.2256 8.20531 59.6577L5.03976 75.6194C4.89466 76.3515 5.17357 77.1028 5.76364 77.5666C6.12638 77.8524 6.56974 78.0001 7.01712 78.0001C7.29684 78.0001 7.57817 77.9426 7.84176 77.8253L23.6204 70.8164C26.9536 72.0938 30.4601 72.8834 34.0578 73.166C39.033 73.5572 43.9389 72.9712 48.6377 71.424C53.1744 69.9303 57.3274 67.6078 60.9815 64.5214C64.6348 61.4349 67.6052 57.7393 69.8107 53.5375C70.9522 51.362 71.8631 49.0977 72.5378 46.7618C73.2117 44.4258 73.6502 42.0171 73.8477 39.5534C74.2427 34.6251 73.651 29.7671 72.0888 25.1134Z" fill="#3956F0"/>
</g>
</g>
<g id="Mask group_2">
<mask id="mask1_91_103" style="mask-type:luminance" maskUnits="userSpaceOnUse" x="0" y="0" width="74" height="78">
<g id="Group_2">
<path id="Vector_2" d="M0 0.027832H73.9664V78.0001H0V0.027832Z" fill="white"/>
</g>
</mask>
<g mask="url(#mask1_91_103)">
<path id="Fill-4" fill-rule="evenodd" clip-rule="evenodd" d="M25.9422 26.0002C21.5551 26.0315 17.9866 29.6515 18 34.055C18.0111 37.6598 20.3888 40.705 23.6554 41.7087C22.7934 44.6946 20.5936 47.5279 18.8261 49.442C18.1708 50.1517 18.9024 51.2673 19.8104 50.9422C24.2254 49.3615 31.4162 45.4387 33.565 36.6474C33.8468 35.8269 34 34.9464 34 34.0298C34 29.5759 30.387 25.9689 25.9422 26.0002Z" fill="white"/>
</g>
</g>
<g id="Mask group_3">
<mask id="mask2_91_103" style="mask-type:luminance" maskUnits="userSpaceOnUse" x="0" y="0" width="74" height="78">
<g id="Group_3">
<path id="Vector_3" d="M0 0.027832H73.9664V78.0001H0V0.027832Z" fill="white"/>
</g>
</mask>
<g mask="url(#mask2_91_103)">
<path id="Fill-6" fill-rule="evenodd" clip-rule="evenodd" d="M56 34.0298C56 29.5759 52.387 25.9689 47.9422 26.0002C43.555 26.0315 39.9866 29.6515 40 34.055C40.011 37.6597 42.3887 40.705 45.6553 41.7087C44.7933 44.6946 42.5935 47.5279 40.826 49.442C40.1707 50.1517 40.9024 51.2673 41.8103 50.9422C46.2254 49.3615 53.4161 45.4387 55.5651 36.6473C55.8469 35.8269 56 34.9464 56 34.0298Z" fill="white"/>
</g>
</g>
</g>
</g>
</g>
</g>
</g>
<defs>
<clipPath id="clip0_91_103">
<rect width="74" height="78" fill="white"/>
</clipPath>
</defs>
</svg>
